<?xml version="1.0" encoding="utf-8"?>
<!-- Generator: Adobe Illustrator 19.0.1, SVG Export Plug-In . SVG Version: 6.00 Build 0)  -->
<svg version="1.1" id="Layer_1" xmlns="http://www.w3.org/2000/svg" xmlns:xlink="http://www.w3.org/1999/xlink" x="0px" y="0px"
	 viewBox="-76 270.7 235.9 204.2" style="enable-background:new -76 270.7 235.9 204.2;" xml:space="preserve">
<style type="text/css">
	.st0{fill:#8C7387;}
</style>
<g>
	<path d="M-46.8,424.3l-7.9-15.8h-7.1v15.8h-5.7v-37.4h14.5c7.1,0,11.6,4.6,11.6,10.9c0,5.4-3.3,8.8-7.5,9.9l8.6,16.6L-46.8,424.3
		L-46.8,424.3z M-53.4,391.9h-8.4v11.7h8.4c3.8,0,6.4-2.2,6.4-5.8C-47,394.1-49.6,391.9-53.4,391.9z"/>
	<path d="M-18.8,424.6c-7.6,0-13.4-5.2-13.4-12.9v-24.8h5.7v24.6c0,5,3,8.1,7.7,8.1s7.8-3.1,7.8-8.1v-24.6h5.7v24.8
		C-5.3,419.4-11.2,424.6-18.8,424.6z"/>
	<path d="M28,420.3c-2.8,3-6.4,4.3-10.3,4.3c-3.9,0-7.3-1.4-9.8-4c-3.7-3.7-3.6-7.8-3.6-15c0-7.2-0.1-11.4,3.6-15
		c2.6-2.6,5.8-4,9.8-4c7.9,0,12.6,5.2,13.6,11.6h-5.7c-0.9-4.1-3.7-6.5-7.9-6.5c-2.2,0-4.2,0.9-5.5,2.3c-1.8,2-2.3,4.1-2.3,11.6
		s0.4,9.7,2.3,11.7c1.3,1.4,3.3,2.3,5.5,2.3c2.5,0,4.6-0.9,6.1-2.6c1.4-1.6,1.9-3.5,1.9-5.9v-2.1h-8V404h13.7v5.7
		C31.4,414.6,30.5,417.7,28,420.3z"/>
	<path d="M56.5,424.3H41.3v-37.4h14.6c6.9,0,11.3,3.9,11.3,10.3c0,4.1-2.5,6.9-5,7.9c2.9,1.2,5.6,3.9,5.6,8.7
		C67.8,420.6,63.1,424.3,56.5,424.3z M55.4,391.9H47v10.7h8.4c3.6,0,6.1-1.9,6.1-5.4C61.5,393.8,59,391.9,55.4,391.9z M55.9,407.8
		H47v11.4h8.9c3.9,0,6.2-2.4,6.2-5.7S59.9,407.8,55.9,407.8z"/>
	<path d="M89.8,408.9v15.4h-5.7v-15.4l-11.2-22h6.2l7.8,16.5l7.8-16.5h6.2L89.8,408.9z"/>
	<path d="M-55.2,474.9c-3.6,0-6.9-1.4-9.4-3.8c-3.4-3.4-3.5-6.8-3.5-15.2c0-8.5,0.1-11.8,3.5-15.2c2.5-2.5,5.8-3.8,9.4-3.8
		c6.7,0,11.5,4.2,12.7,10.9h-2.9c-1.1-5.2-4.8-8.4-9.8-8.4c-2.7,0-5.2,1-7.1,2.9c-2.7,2.7-2.9,5.6-2.9,13.6c0,8,0.2,10.9,2.9,13.6
		c1.9,1.9,4.4,2.9,7.1,2.9c5,0,8.8-3.2,9.9-8.4h2.8C-43.7,470.7-48.6,474.9-55.2,474.9z"/>
	<path d="M-10.2,471c-2.5,2.5-5.8,3.8-9.4,3.8s-6.9-1.4-9.4-3.8c-3.4-3.4-3.5-6.8-3.5-15.2c0-8.5,0.1-11.8,3.5-15.2
		c2.5-2.5,5.8-3.8,9.4-3.8s6.9,1.4,9.4,3.8c3.4,3.4,3.5,6.7,3.5,15.2C-6.7,464.3-6.8,467.6-10.2,471z M-12.5,442.2
		c-1.9-1.9-4.4-2.9-7.1-2.9c-2.7,0-5.2,1-7.1,2.9c-2.7,2.7-2.9,5.6-2.9,13.6c0,8,0.2,10.9,2.9,13.6c1.9,1.9,4.4,2.9,7.1,2.9
		s5.2-1,7.1-2.9c2.7-2.7,2.9-5.6,2.9-13.6C-9.6,447.8-9.8,444.9-12.5,442.2z"/>
	<path d="M4.7,437.1h2.8V472h19.9v2.5H4.7V437.1z"/>
	<path d="M37.1,437.1h2.8V472h19.9v2.5H37.1C37.1,474.6,37.1,437.1,37.1,437.1z"/>
	<path d="M69.5,437.1h22.7v2.5H72.4v14.8h16.9v2.5H72.4V472h19.9v2.5H69.5V437.1z"/>
	<path d="M123,470.6c-2.5,2.7-6,4.3-9.8,4.3c-3.6,0-6.9-1.4-9.4-3.8c-3.4-3.4-3.5-6.8-3.5-15.2c0-8.5,0.1-11.8,3.5-15.2
		c2.5-2.5,5.8-3.8,9.4-3.8c6.5,0,11.7,4.4,12.8,10.9h-2.8c-1.1-5.2-4.9-8.4-9.9-8.4c-2.7,0-5.2,1-7.1,2.9c-2.7,2.7-2.9,5.6-2.9,13.6
		c0,8,0.2,10.9,2.9,13.6c1.9,1.9,4.4,2.9,7.1,2.9c2.9,0,5.8-1.3,7.8-3.6c1.6-2.1,2.3-4.2,2.3-7.4v-3.4h-10v-2.5H126v6.1
		C126,465.5,125.2,468.2,123,470.6z"/>
	<path d="M137.2,437.1h22.7v2.5H140v14.8h16.9v2.5H140V472h19.9v2.5h-22.7V437.1z"/>
</g>
<path class="st0" d="M-76,322c0.4,30.9,18.1,38.3,39.8,33.8c21.7-4.5,33.8-17.2,38.8-50.1c4.7-31.2-18.1-38.3-39.8-33.8
	C-58.9,276.4-76.4,291.1-76,322z M-39.2,296.8c12.3-2.5,25.3,1.4,22.6,19.2c-2.8,18.7-9.7,25.9-22,28.5
	c-12.3,2.6-22.4-1.7-22.6-19.2C-61.5,307.7-51.6,299.3-39.2,296.8z"/>
</svg>
